<svg width="32" height="32" viewBox="0 0 128 128" fill="none" xmlns="http://www.w3.org/2000/svg">

  <path d="M64 4L116 36V92L64 124L12 92V36L64 4Z" fill="url(#bgGradient)"></path>

  <rect x="40" y="48" width="12" height="44" rx="2" fill="url(#b1)"></rect>
  <rect x="58" y="36" width="14" height="56" rx="2" fill="url(#b2)"></rect>
  <rect x="78" y="54" width="10" height="38" rx="2" fill="url(#b3)"></rect>

  <circle cx="44" cy="56" r="1.5" fill="white"></circle>
  <circle cx="44" cy="64" r="1.5" fill="white"></circle>
  <circle cx="44" cy="72" r="1.5" fill="white"></circle>

  <circle cx="64" cy="44" r="1.5" fill="white"></circle>
  <circle cx="64" cy="52" r="1.5" fill="white"></circle>
  <circle cx="64" cy="60" r="1.5" fill="white"></circle>

  <circle cx="82" cy="62" r="1.5" fill="white"></circle>
  <circle cx="82" cy="70" r="1.5" fill="white"></circle>

  <defs>
    <linearGradient id="bgGradient" x1="0" y1="0" x2="1" y2="1">
      <stop offset="0%" stop-color="#8ED6FF"></stop>
      <stop offset="100%" stop-color="#127AE2"></stop>
    </linearGradient>

    <linearGradient id="b1" x1="0" y1="0" x2="0" y2="1">
      <stop offset="0%" stop-color="#1E90FF"></stop>
      <stop offset="100%" stop-color="#0B4FA3"></stop>
    </linearGradient>

    <linearGradient id="b2" x1="0" y1="0" x2="0" y2="1">
      <stop offset="0%" stop-color="#4FC3FF"></stop>
      <stop offset="100%" stop-color="#127AE2"></stop>
    </linearGradient>

    <linearGradient id="b3" x1="0" y1="0" x2="0" y2="1">
      <stop offset="0%" stop-color="#6ECFFF"></stop>
      <stop offset="100%" stop-color="#1E88E5"></stop>
    </linearGradient>
  </defs>
</svg>
